# xmcd CD database file
#
# Track frame offsets:
#	150
#	22128
#	40011
#	64492
#	83453
#	107825
#	129281
#	154565
#	177153
#	198954
#	225793
#	249156
#	269628
#	288135
#
# Disc length: 4075 seconds
#
# Revision: 2
# Processed by: cddbd v1.5.2PL0 Copyright (c) Steve Scherf et al.
# Submitted via: CDex 1.51
#
DISCID=ac0fe90e
DTITLE=Anders Osborne - Ash Wednesday Blues
DYEAR=2001
DGENRE=Blues
TTITLE0=Stoned, Drunk and Naked
TTITLE1=Ho-Di-Ko-Di-Ya-La-Ma-La
TTITLE2=Every Bit Of Love
TTITLE3=Stuck On My Baby
TTITLE4=Snake Bit
TTITLE5=Soul Livin'
TTITLE6=Me and Lola
TTITLE7=Kingdom Come
TTITLE8=Kiddin' Me
TTITLE9=Life Is Strange
TTITLE10=Aim Way High
TTITLE11=Improvise
TTITLE12=Ash Wednesday Blues
TTITLE13=Through and Through
EXTD=YEAR: 2001
EXTT0=
EXTT1=
EXTT2=
EXTT3=
EXTT4=
EXTT5=
EXTT6=
EXTT7=
EXTT8=
EXTT9=
EXTT10=
EXTT11=
EXTT12=
EXTT13=
PLAYORDER=
